<svg width="16" height="16" viewBox="0 0 16 16" fill="none" xmlns="http://www.w3.org/2000/svg">
<path d="M14.2667 6H13.2V3.73333C13.2 1.74853 11.0507 0 7.99999 0C4.94933 0 2.79999 1.74853 2.79999 3.73333V6H1.73333C1.07173 6 0.533325 6.5384 0.533325 7.2V14.8C0.533325 15.4616 1.07173 16 1.73333 16H14.2667C14.9283 16 15.4667 15.4616 15.4667 14.8V7.2C15.4667 6.5384 14.9283 6 14.2667 6ZM3.59999 3.73333C3.59999 2.18933 5.39199 0.8 7.99999 0.8C10.608 0.8 12.4 2.18933 12.4 3.73333V6H3.59999V3.73333ZM14.6667 14.8C14.6667 15.0208 14.4875 15.2 14.2667 15.2H1.73333C1.51253 15.2 1.33333 15.0208 1.33333 14.8V7.2C1.33333 6.9792 1.51253 6.8 1.73333 6.8H14.2667C14.4875 6.8 14.6667 6.9792 14.6667 7.2V14.8Z" fill="#6F74DD"/>
</svg>
