<svg width="16" height="16" viewBox="0 0 16 16" fill="none" xmlns="http://www.w3.org/2000/svg">
<path d="M7.99994 8.53333C5.64707 8.53333 3.73328 6.61954 3.73328 4.26667C3.73328 1.91379 5.64707 0 7.99994 0C10.3528 0 12.2666 1.91379 12.2666 4.26667C12.2666 6.61954 10.3528 8.53333 7.99994 8.53333ZM7.99994 0.775758C6.07529 0.775758 4.50903 2.34201 4.50903 4.26667C4.50903 6.19132 6.07529 7.75758 7.99994 7.75758C9.9246 7.75758 11.4909 6.19132 11.4909 4.26667C11.4909 2.34201 9.9246 0.775758 7.99994 0.775758Z" fill="#6F74DD"/>
<path d="M14.7368 16.0001H1.26316C0.566737 16.0001 0 15.5066 0 14.9001C0 14.8502 0.0117895 13.1311 1.03158 11.9468C1.62526 11.2574 2.43789 10.7096 3.44758 10.3195C4.68042 9.8421 6.21221 9.6001 8 9.6001C9.78779 9.6001 11.3196 9.8421 12.5524 10.3195C13.5621 10.7104 14.3747 11.2574 14.9684 11.9468C15.9882 13.1311 16 14.8502 16 14.9001C16 15.5066 15.4333 16.0001 14.7368 16.0001ZM8 10.3334C5.06358 10.3334 2.89684 11.0323 1.73389 12.3545C0.862316 13.3452 0.842947 14.8913 0.842105 14.9016C0.842105 15.1025 1.03074 15.2668 1.26316 15.2668H14.7368C14.9693 15.2668 15.1579 15.1025 15.1579 14.9001C15.1579 14.8913 15.1385 13.3452 14.2661 12.3545C13.1023 11.0323 10.9356 10.3334 8 10.3334Z" fill="#6F74DD"/>
</svg>
