<svg width="16" height="16" viewBox="0 0 16 16" fill="none" xmlns="http://www.w3.org/2000/svg">
<path d="M15.8976 7.7321C15.86 7.6897 14.952 6.6881 13.5328 5.6745C12.6952 5.0761 11.8528 4.5993 11.0288 4.2561C9.98476 3.8209 8.96556 3.6001 7.99996 3.6001C7.03436 3.6001 6.01516 3.8209 4.97116 4.2561C4.14716 4.5993 3.30476 5.0769 2.46716 5.6745C1.04796 6.6881 0.139956 7.6905 0.102356 7.7321C-0.0344441 7.8841 -0.0344441 8.1153 0.102356 8.2673C0.139956 8.3097 1.04796 9.3113 2.46716 10.3249C3.30476 10.9233 4.14716 11.4001 4.97116 11.7433C6.01516 12.1785 7.03436 12.3993 7.99996 12.3993C8.96556 12.3993 9.98476 12.1785 11.0288 11.7433C11.8528 11.4001 12.6952 10.9225 13.5328 10.3249C14.952 9.3113 15.86 8.3089 15.8976 8.2673C16.0344 8.1153 16.0344 7.8841 15.8976 7.7321ZM10.0592 4.7497C10.7848 5.3601 11.2 6.2481 11.2 7.1993C11.2 8.9641 9.76476 10.3993 7.99996 10.3993C6.23516 10.3993 4.79996 8.9641 4.79996 7.1993C4.79996 6.2489 5.21516 5.3601 5.94076 4.7497C6.59836 4.5353 7.29356 4.3993 7.99996 4.3993C8.70636 4.3993 9.40156 4.5353 10.0592 4.7497V4.7497ZM13.0536 9.6841C11.8272 10.5577 9.95516 11.5993 7.99996 11.5993C6.04476 11.5993 4.17276 10.5577 2.94636 9.6841C2.02076 9.0249 1.31276 8.3577 0.955156 7.9993C1.31276 7.6409 2.02076 6.9745 2.94636 6.3145C3.37036 6.0121 3.87116 5.6905 4.42636 5.3985C4.14876 5.9489 3.99996 6.5625 3.99996 7.1993C3.99996 9.4049 5.79436 11.1993 7.99996 11.1993C10.2056 11.1993 12 9.4049 12 7.1993C12 6.5625 11.8512 5.9489 11.5736 5.3985C12.1288 5.6905 12.6296 6.0129 13.0536 6.3145C13.9792 6.9737 14.6872 7.6409 15.0448 7.9993C14.6872 8.3577 13.9792 9.0241 13.0536 9.6841Z" fill="#4F4F4F"/>
</svg>
